<svg xmlns="http://www.w3.org/2000/svg" viewBox="0 0 64 64" role="img" aria-label="HotTake flame">
  <defs>
    <linearGradient id="flame-gradient" x1="18" y1="6" x2="48" y2="58" gradientUnits="userSpaceOnUse">
      <stop offset="0" stop-color="#ffb000"/>
      <stop offset="0.52" stop-color="#ff4d00"/>
      <stop offset="1" stop-color="#d91f00"/>
    </linearGradient>
  </defs>
  <rect width="64" height="64" rx="14" fill="#0a0a0f"/>
  <path fill="url(#flame-gradient)" d="M35.4 6.8c2.4 8.3-.6 12.9-3.8 17.3-2.3 3.2-4.8 6.6-4.8 11.5 0 2.9 1.3 5.6 3.6 7.4-.2-6.1 4.4-10.4 8.6-13.9 1.4 4.4 5.8 7.7 5.8 14.3 0 8.2-5.7 14.1-13.1 14.1-8.5 0-15.2-6.8-15.2-16.6 0-7.1 3.8-12.6 8.4-18.2 3.7-4.5 7.7-9.4 10.5-15.9Z"/>
  <path fill="#fff2b8" d="M33.2 40.9c1.2-3.2 4.1-5.1 6.1-7.4 1.6 3.3 3.3 5.6 3.3 9.4 0 5.1-3.7 8.8-9 8.8-4.9 0-8.5-3.7-8.5-8.7 0-3 .9-5.2 2.3-7.3.4 3.2 2.3 5.2 5.8 5.2Z" opacity=".9"/>
</svg>
